<?xml version="1.0" encoding="UTF-8"?>
<svg id="Capa_1" data-name="Capa 1" xmlns="http://www.w3.org/2000/svg" xmlns:xlink="http://www.w3.org/1999/xlink" viewBox="0 0 201.04 214.16">
  <defs>
    <style>
      .cls-1, .cls-2 {
        fill: #fff;
      }

      .cls-3 {
        fill: #d0d2d3;
      }

      .cls-3, .cls-2, .cls-4, .cls-5 {
        fill-rule: evenodd;
      }

      .cls-6 {
        stroke: #fff;
        stroke-width: 6px;
      }

      .cls-6, .cls-7, .cls-8, .cls-9, .cls-10, .cls-11, .cls-12 {
        fill: none;
      }

      .cls-6, .cls-7, .cls-12 {
        stroke-linejoin: bevel;
      }

      .cls-13 {
        fill: #fbea26;
      }

      .cls-14 {
        clip-path: url(#clippath-2);
      }

      .cls-15 {
        fill: url(#Degradado_sin_nombre_11);
      }

      .cls-16 {
        clip-path: url(#clippath-1);
      }

      .cls-17 {
        fill: url(#Degradado_sin_nombre_10);
      }

      .cls-4, .cls-18 {
        fill: #010101;
      }

      .cls-19 {
        font-family: Broadway, Broadway;
        font-size: 32.89px;
      }

      .cls-19, .cls-5 {
        fill: #e52628;
      }

      .cls-20 {
        clip-path: url(#clippath);
      }

      .cls-7 {
        stroke-width: 8px;
      }

      .cls-7, .cls-10 {
        stroke: #fbea26;
      }

      .cls-8 {
        clip-rule: evenodd;
      }

      .cls-10 {
        stroke-miterlimit: 10;
      }

      .cls-10, .cls-12 {
        stroke-width: 4px;
      }

      .cls-11 {
        stroke-miterlimit: 22.93;
        stroke-width: .57px;
      }

      .cls-11, .cls-12 {
        stroke: #010101;
      }
    </style>
    <clipPath id="clippath">
      <polygon class="cls-8" points="49.43 102.22 38.25 102.22 33.85 106.06 29.85 109.35 29.85 116.52 49.43 116.52 49.43 102.22"/>
    </clipPath>
    <clipPath id="clippath-1">
      <rect class="cls-9" x="28.31" y="100.77" width="22.36" height="17.11"/>
    </clipPath>
    <linearGradient id="Degradado_sin_nombre_10" data-name="Degradado sin nombre 10" x1="47.02" y1="122.89" x2="36.38" y2="103.73" gradientUnits="userSpaceOnUse">
      <stop offset="0" stop-color="#231f20"/>
      <stop offset=".09" stop-color="#2c2829"/>
      <stop offset=".25" stop-color="#464344"/>
      <stop offset=".46" stop-color="#716e6f"/>
      <stop offset=".7" stop-color="#abaaaa"/>
      <stop offset=".97" stop-color="#f6f6f6"/>
      <stop offset="1" stop-color="#fff"/>
    </linearGradient>
    <clipPath id="clippath-2">
      <path class="cls-8" d="m117.12,104.11,0,0h0s0,0,0,0Zm0,0h0s0,0,0,0h0Zm-.52,2.03h0s0-.03,0-.03h0s0-.01,0-.01h0s0-.02,0-.02h0c.14-.28.25-.56.33-.85.08-.3.13-.6.15-.92v-.02s0,0,0,0h0s0-.03,0-.03h0s0-.02,0-.02v-.02s0,0,0,0v-.03s0,0,0,0v-.03s0,0,0,0v-.03s0,.03,0,.03h0s0,.03,0,.03h0s0,.03,0,.03h0s0,.02,0,.02h0s0,.02,0,.02v.02s0,0,0,0h0s0,.03,0,.03c-.03.63-.2,1.23-.48,1.76h0s0,.01,0,.01h0s0,.03,0,.03h0s0,.02,0,.02h0Z"/>
    </clipPath>
    <linearGradient id="Degradado_sin_nombre_11" data-name="Degradado sin nombre 11" x1="116.3" y1="100.38" x2="117.05" y2="106.77" gradientUnits="userSpaceOnUse">
      <stop offset="0" stop-color="#4b3415"/>
      <stop offset="1" stop-color="#420c2a"/>
    </linearGradient>
  </defs>
  <path class="cls-7" d="m33.81,69.78c10.53-10.03,20.95-15.94,36.72-11.08,10.51-28.93,53.1-27.56,61.12-.66l34.67.1C153.63-17.8,34.83-13.79,33.81,69.78Z"/>
  <path class="cls-5" d="m33.81,69.78c10.53-10.03,20.95-15.94,36.72-11.08,10.51-28.93,53.1-27.56,61.12-.66l34.67.1C153.63-17.8,34.83-13.79,33.81,69.78"/>
  <path class="cls-5" d="m97.58,152.03c50.62,0,91.65,17,91.65,31.06s-41.03,25.47-91.65,25.47S5.94,197.16,5.94,183.1s41.03-31.06,91.65-31.06m0,0c53.89,0,97.58,13.91,97.58,31.06s-43.69,31.06-97.58,31.06S0,200.25,0,183.1s43.69-31.06,97.58-31.06"/>
  <path class="cls-7" d="m64.1,138.59l56.67-.5s-.91,7.19,6.16,9.18l-27.71,31.64-35.12-40.32Z"/>
  <path class="cls-5" d="m64.1,138.59l56.67-.5s-.91,7.19,6.16,9.18l-27.71,31.64-35.12-40.32Z"/>
  <path class="cls-7" d="m97.79,182.83c5.49,0,9.95,1.89,9.95,4.23s-4.45,4.23-9.95,4.23-9.95-1.89-9.95-4.23,4.45-4.23,9.95-4.23Z"/>
  <path class="cls-5" d="m97.79,182.83c5.49,0,9.95,1.89,9.95,4.23s-4.45,4.23-9.95,4.23-9.95-1.89-9.95-4.23,4.45-4.23,9.95-4.23"/>
  <path class="cls-5" d="m51.97,63.24c-3.74,2.9-8.79,5.48-12.19,8.78-3.64,3.54-5.91,6.84-8.93,11.76-1.57,2.55,3.47,5.2,10.86,6.6,0,0,27.6-5.54,27.6,9.43s-.07,30.84-.07,30.84c0,0-2.15,3.87-6.34-.22l.14-31.11s-11.12-8.83-25.03-2.89c-13.91,5.94-19.67,18.81-19.67,18.81l-.34,17.99s3.76.7,5.25,2.15l9.01.1s4.62-11.58,13.51-11.43c0,0,10.6-.8,12.66,11.88h63.05c-.74-11.81,22.46-18.24,25.97.12l19.19-.03.11-73.35-114.76.59Z"/>
  <path class="cls-12" d="m51.97,63.24c-3.74,2.9-8.79,5.48-12.19,8.78-3.64,3.54-5.91,6.84-8.93,11.76-1.57,2.55,3.47,5.2,10.86,6.6,0,0,27.6-5.54,27.6,9.43s-.07,30.84-.07,30.84c0,0-2.15,3.87-6.34-.22l.14-31.11s-11.12-8.83-25.03-2.89c-13.91,5.94-19.67,18.81-19.67,18.81l-.34,17.99s3.76.7,5.25,2.15l9.01.1s4.62-11.58,13.51-11.43c0,0,10.6-.8,12.66,11.88h63.05c-.74-11.81,22.46-18.24,25.97.12l19.19-.03.11-73.35-114.76.59Z"/>
  <polygon class="cls-3" points="49.43 102.22 38.25 102.22 33.85 106.06 29.85 109.35 29.85 116.52 49.43 116.52 49.43 102.22"/>
  <g class="cls-20">
    <g class="cls-16">
      <rect class="cls-17" x="28.31" y="100.77" width="22.36" height="17.11"/>
    </g>
  </g>
  <polygon class="cls-11" points="49.43 102.22 38.25 102.22 33.85 106.06 29.85 109.35 29.85 116.52 49.43 116.52 49.43 102.22"/>
  <path class="cls-10" d="m139.79,95.19c0-14.55-12.15-26.34-27.14-26.34s-27.14,11.79-27.14,26.34,12.15,26.34,27.14,26.34,27.14-11.79,27.14-26.34Z"/>
  <g class="cls-14">
    <rect class="cls-15" x="116.6" y="104.11" width=".52" height="2.05"/>
  </g>
  <rect class="cls-18" x="163.48" y="62.67" width="3.14" height="73.34"/>
  <rect class="cls-11" x="163.48" y="62.67" width="3.14" height="73.34"/>
  <g>
    <path class="cls-1" d="m138,94.97c0-13.53-11.3-24.5-25.24-24.5s-25.24,10.97-25.24,24.5,11.3,24.5,25.24,24.5,25.24-10.97,25.24-24.5Z"/>
    <text class="cls-19" transform="translate(96.86 102.42)"><tspan x="0" y="0">M</tspan></text>
  </g>
  <g>
    <ellipse class="cls-18" cx="134.44" cy="135.79" rx="10.22" ry="8.94"/>
    <path class="cls-6" d="m134.44,132.98c1.77,0,3.21,1.26,3.21,2.81s-1.44,2.81-3.21,2.81-3.21-1.26-3.21-2.81,1.44-2.81,3.21-2.81Z"/>
    <path class="cls-4" d="m134.44,132.98c1.77,0,3.21,1.26,3.21,2.81s-1.44,2.81-3.21,2.81-3.21-1.26-3.21-2.81,1.44-2.81,3.21-2.81"/>
  </g>
  <g>
    <ellipse class="cls-18" cx="45.44" cy="135.79" rx="10.22" ry="8.94"/>
    <path class="cls-6" d="m45.44,132.98c1.77,0,3.21,1.26,3.21,2.81s-1.44,2.81-3.21,2.81-3.21-1.26-3.21-2.81,1.44-2.81,3.21-2.81Z"/>
    <path class="cls-4" d="m45.44,132.98c1.77,0,3.21,1.26,3.21,2.81s-1.44,2.81-3.21,2.81-3.21-1.26-3.21-2.81,1.44-2.81,3.21-2.81"/>
  </g>
  <polygon class="cls-2" points="19.02 127.28 21.07 127.28 21.07 128.24 19 128.24 19.02 127.28"/>
  <rect class="cls-13" x="21.07" y="127.27" width="2.31" height=".96"/>
  <rect class="cls-13" x="19.79" y="126.3" width="3.6" height=".98"/>
  <polygon class="cls-2" points="21.07 126.3 19.04 126.3 19.02 127.3 21.07 127.29 21.07 126.3"/>
  <polygon class="cls-18" points="165.01 60.63 165.01 131.88 170.29 126.73 167.36 126.73 173.82 119.71 167.36 119.71 176.76 110.35 169.12 110.35 182.63 100.41 170.29 100.41 184.39 89.88 172.64 89.88 190.85 79.35 175.58 79.35 193.79 69.99 178.52 69.99 201.04 60.63 165.01 60.63"/>
</svg>